<mxfile host="app.diagrams.net" agent="Mozilla/5.0 (Windows NT 10.0; Win64; x64) AppleWebKit/537.36 (KHTML, like Gecko) Chrome/139.0.0.0 Safari/537.36" version="28.1.2">
  <diagram name="Page-1" id="J3_lB2kys0Fen_EBxoNJ">
    <mxGraphModel dx="1826" dy="743" grid="0" gridSize="10" guides="1" tooltips="1" connect="1" arrows="1" fold="1" page="0" pageScale="1" pageWidth="827" pageHeight="1169" math="0" shadow="0">
      <root>
        <mxCell id="0" />
        <mxCell id="1" parent="0" />
        <mxCell id="wk0jihwX9DsLzh1ED5H1-52" value="" style="endArrow=classic;html=1;rounded=0;" parent="1" edge="1">
          <mxGeometry width="50" height="50" relative="1" as="geometry">
            <mxPoint x="495" y="520" as="sourcePoint" />
            <mxPoint x="545" y="570" as="targetPoint" />
          </mxGeometry>
        </mxCell>
        <mxCell id="wk0jihwX9DsLzh1ED5H1-1" value="" style="ellipse;whiteSpace=wrap;html=1;aspect=fixed;" parent="1" vertex="1">
          <mxGeometry x="100" y="300" width="80" height="80" as="geometry" />
        </mxCell>
        <mxCell id="wk0jihwX9DsLzh1ED5H1-5" value="&lt;font face=&quot;Times New Roman&quot; style=&quot;font-size: 22px;&quot;&gt;Solar Irradiance, G&lt;sub style=&quot;&quot;&gt;n&lt;/sub&gt;&lt;/font&gt;" style="text;html=1;align=center;verticalAlign=middle;whiteSpace=wrap;rounded=0;" parent="1" vertex="1">
          <mxGeometry x="-18" y="429" width="168" height="30" as="geometry" />
        </mxCell>
        <mxCell id="wk0jihwX9DsLzh1ED5H1-6" value="" style="endArrow=none;html=1;rounded=0;" parent="1" edge="1">
          <mxGeometry width="50" height="50" relative="1" as="geometry">
            <mxPoint x="120" y="700" as="sourcePoint" />
            <mxPoint x="720" y="700" as="targetPoint" />
          </mxGeometry>
        </mxCell>
        <mxCell id="wk0jihwX9DsLzh1ED5H1-24" value="" style="endArrow=none;html=1;rounded=0;" parent="1" edge="1">
          <mxGeometry width="50" height="50" relative="1" as="geometry">
            <mxPoint x="300" y="600" as="sourcePoint" />
            <mxPoint x="450" y="450" as="targetPoint" />
          </mxGeometry>
        </mxCell>
        <mxCell id="wk0jihwX9DsLzh1ED5H1-33" value="" style="endArrow=classic;html=1;rounded=0;" parent="1" edge="1">
          <mxGeometry width="50" height="50" relative="1" as="geometry">
            <mxPoint x="180" y="380" as="sourcePoint" />
            <mxPoint x="220" y="420" as="targetPoint" />
          </mxGeometry>
        </mxCell>
        <mxCell id="wk0jihwX9DsLzh1ED5H1-34" value="" style="endArrow=classic;html=1;rounded=0;" parent="1" edge="1">
          <mxGeometry width="50" height="50" relative="1" as="geometry">
            <mxPoint x="200" y="350" as="sourcePoint" />
            <mxPoint x="240" y="390" as="targetPoint" />
          </mxGeometry>
        </mxCell>
        <mxCell id="wk0jihwX9DsLzh1ED5H1-35" value="" style="endArrow=classic;html=1;rounded=0;" parent="1" edge="1">
          <mxGeometry width="50" height="50" relative="1" as="geometry">
            <mxPoint x="150" y="400" as="sourcePoint" />
            <mxPoint x="190" y="440" as="targetPoint" />
          </mxGeometry>
        </mxCell>
        <mxCell id="wk0jihwX9DsLzh1ED5H1-36" value="" style="endArrow=none;html=1;rounded=0;" parent="1" edge="1">
          <mxGeometry width="50" height="50" relative="1" as="geometry">
            <mxPoint x="370" y="670" as="sourcePoint" />
            <mxPoint x="520" y="520" as="targetPoint" />
          </mxGeometry>
        </mxCell>
        <mxCell id="wk0jihwX9DsLzh1ED5H1-37" value="" style="endArrow=none;html=1;rounded=0;" parent="1" edge="1">
          <mxGeometry width="50" height="50" relative="1" as="geometry">
            <mxPoint x="450" y="450" as="sourcePoint" />
            <mxPoint x="520" y="520" as="targetPoint" />
          </mxGeometry>
        </mxCell>
        <mxCell id="wk0jihwX9DsLzh1ED5H1-38" value="" style="endArrow=none;html=1;rounded=0;" parent="1" edge="1">
          <mxGeometry width="50" height="50" relative="1" as="geometry">
            <mxPoint x="300" y="600" as="sourcePoint" />
            <mxPoint x="370" y="670" as="targetPoint" />
          </mxGeometry>
        </mxCell>
        <mxCell id="wk0jihwX9DsLzh1ED5H1-39" value="" style="endArrow=none;html=1;rounded=0;" parent="1" edge="1">
          <mxGeometry width="50" height="50" relative="1" as="geometry">
            <mxPoint x="470" y="450" as="sourcePoint" />
            <mxPoint x="540" y="520" as="targetPoint" />
          </mxGeometry>
        </mxCell>
        <mxCell id="wk0jihwX9DsLzh1ED5H1-40" value="" style="endArrow=none;html=1;rounded=0;" parent="1" edge="1">
          <mxGeometry width="50" height="50" relative="1" as="geometry">
            <mxPoint x="390" y="670" as="sourcePoint" />
            <mxPoint x="540" y="520" as="targetPoint" />
          </mxGeometry>
        </mxCell>
        <mxCell id="wk0jihwX9DsLzh1ED5H1-41" value="" style="endArrow=none;html=1;rounded=0;" parent="1" edge="1">
          <mxGeometry width="50" height="50" relative="1" as="geometry">
            <mxPoint x="450" y="450" as="sourcePoint" />
            <mxPoint x="470" y="450" as="targetPoint" />
          </mxGeometry>
        </mxCell>
        <mxCell id="wk0jihwX9DsLzh1ED5H1-42" value="" style="endArrow=none;html=1;rounded=0;" parent="1" edge="1">
          <mxGeometry width="50" height="50" relative="1" as="geometry">
            <mxPoint x="520" y="520" as="sourcePoint" />
            <mxPoint x="540" y="520" as="targetPoint" />
          </mxGeometry>
        </mxCell>
        <mxCell id="wk0jihwX9DsLzh1ED5H1-44" value="" style="endArrow=none;html=1;rounded=0;" parent="1" edge="1">
          <mxGeometry width="50" height="50" relative="1" as="geometry">
            <mxPoint x="370" y="670" as="sourcePoint" />
            <mxPoint x="390" y="670" as="targetPoint" />
          </mxGeometry>
        </mxCell>
        <mxCell id="wk0jihwX9DsLzh1ED5H1-45" value="" style="endArrow=none;html=1;rounded=0;" parent="1" edge="1">
          <mxGeometry width="50" height="50" relative="1" as="geometry">
            <mxPoint x="480" y="700" as="sourcePoint" />
            <mxPoint x="480" y="580" as="targetPoint" />
          </mxGeometry>
        </mxCell>
        <mxCell id="wk0jihwX9DsLzh1ED5H1-46" value="" style="endArrow=none;html=1;rounded=0;" parent="1" edge="1">
          <mxGeometry width="50" height="50" relative="1" as="geometry">
            <mxPoint x="460" y="700" as="sourcePoint" />
            <mxPoint x="460" y="600" as="targetPoint" />
          </mxGeometry>
        </mxCell>
        <mxCell id="wk0jihwX9DsLzh1ED5H1-47" value="" style="endArrow=classic;startArrow=classic;html=1;rounded=0;fillColor=#f8cecc;strokeColor=#000000;" parent="1" edge="1">
          <mxGeometry width="50" height="50" relative="1" as="geometry">
            <mxPoint x="320" y="580" as="sourcePoint" />
            <mxPoint x="390" y="650" as="targetPoint" />
          </mxGeometry>
        </mxCell>
        <mxCell id="wk0jihwX9DsLzh1ED5H1-48" value="" style="endArrow=classic;html=1;rounded=0;fillColor=#f8cecc;strokeColor=#000000;" parent="1" edge="1">
          <mxGeometry width="50" height="50" relative="1" as="geometry">
            <mxPoint x="470" y="610" as="sourcePoint" />
            <mxPoint x="470" y="680" as="targetPoint" />
          </mxGeometry>
        </mxCell>
        <mxCell id="wk0jihwX9DsLzh1ED5H1-49" value="&lt;font face=&quot;Times New Roman&quot; style=&quot;color: rgb(0, 0, 0); font-size: 22px;&quot;&gt;Conduction through mounting, Q&lt;sub style=&quot;&quot;&gt;cd&lt;/sub&gt;&lt;/font&gt;" style="text;html=1;align=center;verticalAlign=middle;whiteSpace=wrap;rounded=0;" parent="1" vertex="1">
          <mxGeometry x="473" y="660" width="349" height="30" as="geometry" />
        </mxCell>
        <mxCell id="wk0jihwX9DsLzh1ED5H1-50" value="&lt;font face=&quot;Times New Roman&quot; style=&quot;color: rgb(0, 0, 0); font-size: 22px;&quot;&gt;Conduction through the layers of the photovoltaic module, Q&lt;sub style=&quot;&quot;&gt;cd&lt;/sub&gt;&lt;/font&gt;" style="text;html=1;align=center;verticalAlign=middle;whiteSpace=wrap;rounded=0;" parent="1" vertex="1">
          <mxGeometry x="-44" y="551" width="360" height="30" as="geometry" />
        </mxCell>
        <mxCell id="wk0jihwX9DsLzh1ED5H1-51" value="" style="endArrow=classic;html=1;rounded=0;" parent="1" edge="1">
          <mxGeometry width="50" height="50" relative="1" as="geometry">
            <mxPoint x="450" y="470" as="sourcePoint" />
            <mxPoint x="400" y="420" as="targetPoint" />
          </mxGeometry>
        </mxCell>
        <mxCell id="wk0jihwX9DsLzh1ED5H1-53" value="&lt;font face=&quot;Times New Roman&quot; style=&quot;font-size: 22px;&quot;&gt;Convection from the bottom surface, Q&lt;sub style=&quot;&quot;&gt;cv&lt;/sub&gt;&lt;/font&gt;" style="text;html=1;align=center;verticalAlign=middle;whiteSpace=wrap;rounded=0;" parent="1" vertex="1">
          <mxGeometry x="554" y="551" width="380" height="30" as="geometry" />
        </mxCell>
        <mxCell id="wk0jihwX9DsLzh1ED5H1-54" value="&lt;font face=&quot;Times New Roman&quot; style=&quot;font-size: 22px;&quot;&gt;Convection from the top surface, Q&lt;sub style=&quot;&quot;&gt;cv&lt;/sub&gt;&lt;/font&gt;" style="text;html=1;align=center;verticalAlign=middle;whiteSpace=wrap;rounded=0;" parent="1" vertex="1">
          <mxGeometry x="321" y="368" width="179" height="30" as="geometry" />
        </mxCell>
        <mxCell id="wk0jihwX9DsLzh1ED5H1-56" value="" style="endArrow=classic;html=1;rounded=0;" parent="1" edge="1">
          <mxGeometry width="50" height="50" relative="1" as="geometry">
            <mxPoint x="289" y="680" as="sourcePoint" />
            <mxPoint x="539" y="440" as="targetPoint" />
          </mxGeometry>
        </mxCell>
        <mxCell id="wk0jihwX9DsLzh1ED5H1-57" value="&lt;font face=&quot;Times New Roman&quot; style=&quot;font-size: 22px;&quot;&gt;Convective heat transfer caused by wind across module, Q&lt;sub style=&quot;&quot;&gt;cv&lt;/sub&gt;&lt;/font&gt;" style="text;html=1;align=center;verticalAlign=middle;whiteSpace=wrap;rounded=0;" parent="1" vertex="1">
          <mxGeometry x="509" y="415" width="487" height="30" as="geometry" />
        </mxCell>
        <mxCell id="wk0jihwX9DsLzh1ED5H1-59" value="" style="curved=1;endArrow=classic;html=1;rounded=0;" parent="1" edge="1">
          <mxGeometry width="50" height="50" relative="1" as="geometry">
            <mxPoint x="470" y="555" as="sourcePoint" />
            <mxPoint x="540" y="615" as="targetPoint" />
            <Array as="points">
              <mxPoint x="500" y="575" />
              <mxPoint x="490" y="605" />
              <mxPoint x="530" y="585" />
            </Array>
          </mxGeometry>
        </mxCell>
        <mxCell id="wk0jihwX9DsLzh1ED5H1-60" value="" style="curved=1;endArrow=classic;html=1;rounded=0;" parent="1" edge="1">
          <mxGeometry width="50" height="50" relative="1" as="geometry">
            <mxPoint x="435" y="530" as="sourcePoint" />
            <mxPoint x="365" y="470" as="targetPoint" />
            <Array as="points">
              <mxPoint x="425" y="500" />
              <mxPoint x="385" y="520" />
              <mxPoint x="395" y="490" />
            </Array>
          </mxGeometry>
        </mxCell>
        <mxCell id="wk0jihwX9DsLzh1ED5H1-61" value="&lt;font face=&quot;Times New Roman&quot; style=&quot;font-size: 22px;&quot;&gt;Radiation from the bottom surface, Q&lt;sub style=&quot;&quot;&gt;r&lt;/sub&gt;&lt;/font&gt;" style="text;html=1;align=center;verticalAlign=middle;whiteSpace=wrap;rounded=0;" parent="1" vertex="1">
          <mxGeometry x="552" y="609" width="354" height="30" as="geometry" />
        </mxCell>
        <mxCell id="wk0jihwX9DsLzh1ED5H1-63" value="&lt;font face=&quot;Times New Roman&quot; style=&quot;font-size: 22px;&quot;&gt;Radiation from the top surface, Q&lt;sub style=&quot;&quot;&gt;r&lt;/sub&gt;&lt;/font&gt;" style="text;html=1;align=center;verticalAlign=middle;whiteSpace=wrap;rounded=0;" parent="1" vertex="1">
          <mxGeometry x="202" y="452" width="174" height="30" as="geometry" />
        </mxCell>
      </root>
    </mxGraphModel>
  </diagram>
</mxfile>
